<svg xmlns="http://www.w3.org/2000/svg" version="1.1" xmlns:xlink="http://www.w3.org/1999/xlink" xmlns:svgjs="http://svgjs.dev/svgjs" width="1000" height="1000" viewBox="0 0 1000 1000"><rect width="1000" height="1000" fill="#000000"></rect><g transform="matrix(0.7,0,0,0.7,149.57575757575756,282.1265587044535)"><svg viewBox="0 0 396 247" data-background-color="#306ce6" preserveAspectRatio="xMidYMid meet" height="623" width="1000" xmlns="http://www.w3.org/2000/svg" xmlns:xlink="http://www.w3.org/1999/xlink"><g id="tight-bounds" transform="matrix(1,0,0,1,0.2400000000000091,-0.09999999999999432)"><svg viewBox="0 0 395.52 247.2" height="247.2" width="395.52"><g><svg></svg></g><g><svg viewBox="0 0 395.52 247.2" height="247.2" width="395.52"><g transform="matrix(1,0,0,1,39.55199999999999,106.0721619236037)"><svg viewBox="0 0 316.416 35.05567615279258" height="35.05567615279258" width="316.416"><g><svg viewBox="0 0 316.416 35.05567615279258" height="35.05567615279258" width="316.416"><g><svg viewBox="0 0 316.416 35.05567615279258" height="35.05567615279258" width="316.416"><g><svg viewBox="0 0 316.416 35.05567615279258" height="35.05567615279258" width="316.416"><g><svg viewBox="0 0 316.416 35.05567615279258" height="35.05567615279258" width="316.416"><g><svg viewBox="0 0 316.416 35.05567615279258" height="35.05567615279258" width="316.416"><g transform="matrix(1,0,0,1,0,0)"><svg width="316.416" viewBox="1.5 -35.70000076293945 328.5199890136719 36.400001525878906" height="35.05567615279258" data-palette-color="#fefefe"><path d="M17.5 0.7Q12.65 0.7 9.05-1.53 5.45-3.75 3.48-7.88 1.5-12 1.5-17.5L1.5-17.5Q1.5-22.95 3.53-27.08 5.55-31.2 9.15-33.45 12.75-35.7 17.3-35.7L17.3-35.7Q21.3-35.7 24.9-34.2L24.9-34.2 24.4-29.95Q21.2-31.55 18.2-31.55L18.2-31.55Q14.5-31.55 11.88-29.7 9.25-27.85 7.9-24.65 6.55-21.45 6.55-17.5L6.55-17.5Q6.55-13.55 7.9-10.35 9.25-7.15 11.88-5.3 14.5-3.45 18.25-3.45L18.25-3.45Q21.5-3.45 24.4-4.95L24.4-4.95 24.9-0.7Q21.7 0.7 17.5 0.7L17.5 0.7ZM29.5 0L29.5-35 34.05-35 34.05-4.15 47.4-4.15 47.4 0 29.5 0ZM62.6 0.7Q56.25 0.7 53.2-3.1 50.15-6.9 50.15-13.85L50.15-13.85 50.15-35 54.7-35 54.7-15.15Q54.7-11.5 55.27-9 55.85-6.5 57.6-4.98 59.35-3.45 62.6-3.45L62.6-3.45Q65.9-3.45 67.65-4.98 69.4-6.5 69.97-9 70.55-11.5 70.55-15.15L70.55-15.15 70.55-35 75.1-35 75.1-13.85Q75.1-6.85 72.05-3.08 69 0.7 62.6 0.7L62.6 0.7ZM89.64 0.7Q87.19 0.7 84.52 0.13 81.84-0.45 80.14-1.25L80.14-1.25 80.79-6.25Q82.79-5 85.24-4.23 87.69-3.45 90.09-3.45L90.09-3.45Q93.19-3.45 94.94-4.73 96.69-6 96.69-8.45L96.69-8.45Q96.69-10.2 95.87-11.45 95.04-12.7 93.49-13.68 91.94-14.65 89.14-15.9L89.14-15.9Q85.84-17.4 83.92-18.65 81.99-19.9 80.84-21.75 79.69-23.6 79.69-26.35L79.69-26.35Q79.69-29.15 81.14-31.28 82.59-33.4 85.22-34.55 87.84-35.7 91.19-35.7L91.19-35.7Q93.74-35.7 96.02-35.15 98.29-34.6 99.89-33.8L99.89-33.8 99.39-29.1Q95.24-31.55 90.94-31.55L90.94-31.55Q88.04-31.55 86.39-30.35 84.74-29.15 84.74-26.65L84.74-26.65Q84.74-24.95 85.62-23.83 86.49-22.7 88.04-21.83 89.59-20.95 92.74-19.5L92.74-19.5Q97.44-17.4 99.59-14.98 101.74-12.55 101.74-8.9L101.74-8.9Q101.74-4.45 98.49-1.88 95.24 0.7 89.64 0.7L89.64 0.7ZM112.59 0L112.59-30.85 103.89-30.85 103.89-35 125.89-35 125.89-30.85 117.19-30.85 117.19 0 112.59 0ZM130.09 0L130.09-35 148.79-35 148.79-30.85 134.64-30.85 134.64-20.4 145.84-20.4 145.84-16.2 134.64-16.2 134.64-4.15 149.19-4.15 149.19 0 130.09 0ZM154.29 0L154.29-35 163.29-35Q168.79-35 171.86-32.27 174.94-29.55 174.94-24.3L174.94-24.3Q174.94-21.3 173.51-18.88 172.09-16.45 169.54-15.05L169.54-15.05 176.54 0 171.14 0 164.89-13.7Q164.09-13.6 163.24-13.6L163.24-13.6 158.84-13.6 158.84 0 154.29 0ZM158.84-17.8L162.89-17.8Q166.69-17.8 168.44-19.45 170.19-21.1 170.19-24.3L170.19-24.3Q170.19-27.55 168.44-29.2 166.69-30.85 162.89-30.85L162.89-30.85 158.84-30.85 158.84-17.8ZM196.43 0L187.78-35 192.68-35 198.98-6.35 205.58-34.3 210.73-34.3 217.28-6.35 223.63-35 228.48-35 219.88 0 214.73 0 208.08-27.7 201.58 0 196.43 0ZM249.13 0L246.33-9.5 235.48-9.5 232.68 0 227.78 0 238.53-35 243.23-35 253.98 0 249.13 0ZM236.73-13.75L245.08-13.75 240.88-27.95 236.73-13.75ZM261.68 0L261.68-30.85 252.98-30.85 252.98-35 274.98-35 274.98-30.85 266.28-30.85 266.28 0 261.68 0ZM292.82 0.7Q287.97 0.7 284.37-1.53 280.77-3.75 278.8-7.88 276.82-12 276.82-17.5L276.82-17.5Q276.82-22.95 278.85-27.08 280.87-31.2 284.47-33.45 288.07-35.7 292.62-35.7L292.62-35.7Q296.62-35.7 300.22-34.2L300.22-34.2 299.72-29.95Q296.52-31.55 293.52-31.55L293.52-31.55Q289.82-31.55 287.2-29.7 284.57-27.85 283.22-24.65 281.87-21.45 281.87-17.5L281.87-17.5Q281.87-13.55 283.22-10.35 284.57-7.15 287.2-5.3 289.82-3.45 293.57-3.45L293.57-3.45Q296.82-3.45 299.72-4.95L299.72-4.95 300.22-0.7Q297.02 0.7 292.82 0.7L292.82 0.7ZM304.82 0L304.82-35 309.37-35 309.37-20.55 325.47-20.55 325.47-35 330.02-35 330.02 0 325.47 0 325.47-16.1 309.37-16.1 309.37 0 304.82 0Z" opacity="1" transform="matrix(1,0,0,1,0,0)" fill="#ffffff" class="undefined-text-0" data-fill-palette-color="primary" id="text-0"></path></svg></g></svg></g></svg></g></svg></g><g></g></svg></g></svg></g></svg></g><g mask="url(#d2584dea-d3c2-415a-a50b-0f7a5cb088b5)"><g transform="matrix(4.086666666666667, 0, 0, 4.086666666666667, 75.15999999999998, 0.9999999999999858)"><svg xmlns="http://www.w3.org/2000/svg" xmlns:xlink="http://www.w3.org/1999/xlink" version="1.1" x="0" y="0" viewBox="2 2 60 60" style="enable-background:new 0 0 64 64;" xml:space="preserve" height="60" width="60" class="icon-none" data-fill-palette-color="accent" id="none"><path d="M53 2c-4.962 0-9 4.037-9 9 0 2.08 0.716 3.993 1.906 5.519L33.029 29.548C31.121 27.959 28.671 27 26 27c-2.049 0-3.961 0.573-5.606 1.553l-5.952-11.904C16.586 15.212 18 12.768 18 10c0-4.411-3.589-8-8-8s-8 3.589-8 8 3.589 8 8 8c0.93 0 1.82-0.168 2.651-0.461l6.103 12.206C16.459 31.762 15 34.711 15 38c0 2.673 0.961 5.125 2.552 7.034l-6.081 6.081C10.49 50.416 9.294 50 8 50c-3.309 0-6 2.691-6 6s2.691 6 6 6 6-2.691 6-6c0-1.294-0.416-2.49-1.115-3.471l6.081-6.081C20.875 48.039 23.327 49 26 49c4.101 0 7.679-2.26 9.57-5.597l8.448 4.224C44.014 47.752 44 47.874 44 48c0 4.963 4.038 9 9 9s9-4.037 9-9-4.038-9-9-9c-4.114 0-7.585 2.778-8.654 6.555l-7.955-3.978C36.779 40.454 37 39.254 37 38c0-2.675-0.962-5.129-2.556-7.038l12.853-13.005C48.851 19.232 50.837 20 53 20c4.962 0 9-4.037 9-9S57.962 2 53 2zM4 10c0-3.309 2.691-6 6-6s6 2.691 6 6-2.691 6-6 6S4 13.309 4 10zM53 41c3.86 0 7 3.141 7 7s-3.14 7-7 7-7-3.141-7-7S49.14 41 53 41zM8 60c-2.206 0-4-1.794-4-4s1.794-4 4-4 4 1.794 4 4S10.206 60 8 60zM26 47c-4.962 0-9-4.037-9-9s4.038-9 9-9 9 4.037 9 9S30.962 47 26 47zM53 18c-3.86 0-7-3.141-7-7s3.14-7 7-7 7 3.141 7 7S56.86 18 53 18z" fill="#ffffff" data-fill-palette-color="accent"></path><path d="M40 7c0-2.757-2.243-5-5-5s-5 2.243-5 5 2.243 5 5 5S40 9.757 40 7zM32 7c0-1.654 1.346-3 3-3s3 1.346 3 3-1.346 3-3 3S32 8.654 32 7z" fill="#ffffff" data-fill-palette-color="accent"></path><path d="M30 19c0-2.757-2.243-5-5-5s-5 2.243-5 5 2.243 5 5 5S30 21.757 30 19zM22 19c0-1.654 1.346-3 3-3s3 1.346 3 3-1.346 3-3 3S22 20.654 22 19z" fill="#ffffff" data-fill-palette-color="accent"></path><path d="M4 40.5C4 42.981 6.019 45 8.5 45s4.5-2.019 4.5-4.5S10.981 36 8.5 36 4 38.019 4 40.5zM8.5 38c1.378 0 2.5 1.121 2.5 2.5S9.878 43 8.5 43 6 41.879 6 40.5 7.122 38 8.5 38z" fill="#ffffff" data-fill-palette-color="accent"></path><path d="M5 24c-1.654 0-3 1.346-3 3s1.346 3 3 3 3-1.346 3-3S6.654 24 5 24zM5 28c-0.551 0-1-0.448-1-1s0.449-1 1-1 1 0.448 1 1S5.551 28 5 28z" fill="#ffffff" data-fill-palette-color="accent"></path><path d="M41 32c0 3.309 2.691 6 6 6s6-2.691 6-6-2.691-6-6-6S41 28.691 41 32zM51 32c0 2.206-1.794 4-4 4s-4-1.794-4-4 1.794-4 4-4S51 29.794 51 32z" fill="#ffffff" data-fill-palette-color="accent"></path><path d="M33 50c-3.309 0-6 2.691-6 6s2.691 6 6 6 6-2.691 6-6S36.309 50 33 50zM33 60c-2.206 0-4-1.794-4-4s1.794-4 4-4 4 1.794 4 4S35.206 60 33 60z" fill="#ffffff" data-fill-palette-color="accent"></path><path d="M54 25c0 2.206 1.794 4 4 4s4-1.794 4-4-1.794-4-4-4S54 22.794 54 25zM60 25c0 1.103-0.897 2-2 2s-2-0.897-2-2 0.897-2 2-2S60 23.897 60 25z" fill="#ffffff" data-fill-palette-color="accent"></path></svg></g></g></svg></g><defs><mask id="d2584dea-d3c2-415a-a50b-0f7a5cb088b5"><rect width="640" height="400" fill="white"></rect><rect width="348.05760000000004" height="51.6072837596859" fill="black" x="145.97119999999998" y="174.19635812015704" id="transform-me" transform="matrix(1,0,0,1,-122.24000000000001,-76.4)"></rect></mask></defs></svg><rect width="395.52" height="247.2" fill="none" stroke="none" visibility="hidden"></rect></g></svg></g></svg>